<svg version="1.1" xmlns="http://www.w3.org/2000/svg" xmlns:xlink="http://www.w3.org/1999/xlink" width="122.71754" height="45.48584" viewBox="0,0,122.71754,45.48584"><g transform="translate(-207.09957,-154.38786)"><g data-paper-data="{&quot;isPaintingLayer&quot;:true}" fill-rule="nonzero" stroke-linecap="butt" stroke-linejoin="miter" stroke-miterlimit="10" stroke-dasharray="" stroke-dashoffset="0" style="mix-blend-mode: normal"><path d="M248.89181,177.97706c0,11.5409 -9.13165,20.89664 -20.39612,20.89664c-11.26447,0 -20.39612,-9.35574 -20.39612,-20.89664c0,-11.5409 9.13165,-20.89664 20.39612,-20.89664c11.26447,0 20.39612,9.35574 20.39612,20.89664z" fill="#213552" stroke="#ffde00" stroke-width="2"/><path d="" fill="#509344" stroke="none" stroke-width="0"/><path d="M244.08033,163.39374v-4.78437c3.00864,-0.59234 5.39006,-2.1295 6.33545,-4.08329h73.56384v8.86766z" fill="#509344" stroke="none" stroke-width="0"/><path d="M249.60064,174.63749v-4.78437c3.00864,-0.59234 5.39006,-2.1295 6.33544,-4.08329h73.56384v8.86766z" fill="#509344" stroke="none" stroke-width="0"/><path d="M249.91783,186.14139v-4.78437c3.00864,-0.59234 5.39006,-2.1295 6.33544,-4.08329h73.56384v8.86766z" fill="#509344" stroke="none" stroke-width="0"/><path d="M244.77174,198.42576v-4.78437c3.00864,-0.59234 5.39006,-2.1295 6.33544,-4.08329h73.56384v8.86766z" fill="#509344" stroke="none" stroke-width="0"/><text transform="translate(251.86482,160.93417) scale(0.15049,0.15049)" font-size="40" xml:space="preserve" fill="#ffffff" fill-rule="nonzero" stroke="none" stroke-width="1" stroke-linecap="butt" stroke-linejoin="miter" stroke-miterlimit="10" stroke-dasharray="" stroke-dashoffset="0" font-family="Sans Serif" font-weight="normal" text-anchor="start" style="mix-blend-mode: normal"><tspan x="0" dy="0">More Customers</tspan></text><text transform="translate(255.8242,172.17792) scale(0.15049,0.15049)" font-size="40" xml:space="preserve" fill="#ffffff" fill-rule="nonzero" stroke="none" stroke-width="1" stroke-linecap="butt" stroke-linejoin="miter" stroke-miterlimit="10" stroke-dasharray="" stroke-dashoffset="0" font-family="Sans Serif" font-weight="normal" text-anchor="start" style="mix-blend-mode: normal"><tspan x="0" dy="0">Maintain bills and record</tspan></text><text transform="translate(255.88123,183.68182) scale(0.15049,0.15049)" font-size="40" xml:space="preserve" fill="#ffffff" fill-rule="nonzero" stroke="none" stroke-width="1" stroke-linecap="butt" stroke-linejoin="miter" stroke-miterlimit="10" stroke-dasharray="" stroke-dashoffset="0" font-family="Sans Serif" font-weight="normal" text-anchor="start" style="mix-blend-mode: normal"><tspan x="0" dy="0">No charges ,totally free</tspan></text><text transform="translate(252.29608,195.44587) scale(0.15049,0.15049)" font-size="40" xml:space="preserve" fill="#ffffff" fill-rule="nonzero" stroke="none" stroke-width="1" stroke-linecap="butt" stroke-linejoin="miter" stroke-miterlimit="10" stroke-dasharray="" stroke-dashoffset="0" font-family="Sans Serif" font-weight="normal" text-anchor="start" style="mix-blend-mode: normal"><tspan x="0" dy="0">Lead local market</tspan></text><text transform="translate(213.62188,171.79569) scale(0.16365,0.16365)" font-size="40" xml:space="preserve" fill="#ffffff" fill-rule="nonzero" stroke="none" stroke-width="1" stroke-linecap="butt" stroke-linejoin="miter" stroke-miterlimit="10" stroke-dasharray="" stroke-dashoffset="0" font-family="Sans Serif" font-weight="normal" text-anchor="start" style="mix-blend-mode: normal"><tspan x="0" dy="0">what </tspan><tspan x="0" dy="46.150000000000006px">you get as</tspan><tspan x="0" dy="46.150000000000006px">Seller?</tspan></text></g></g></svg>