<svg width="766" height="62" viewBox="0 0 766 62" fill="none" xmlns="http://www.w3.org/2000/svg">
<rect x="679" y="14" width="71" height="25" rx="5" fill="#0D788F"/>
<g filter="url(#filter0_d_706_13)">
<rect x="4" width="10" height="54" fill="#0D788F"/>
</g>
<g filter="url(#filter1_d_706_13)">
<rect x="4" y="51" width="48" height="757.315" transform="rotate(-90 4 51)" fill="#3CB3CD" fill-opacity="0.24" shape-rendering="crispEdges"/>
</g>
<path d="M58 27.5C58 36.6127 49.7173 44 39.5 44C29.2827 44 21 36.6127 21 27.5C21 18.3873 29.2827 11 39.5 11C49.7173 11 58 18.3873 58 27.5Z" fill="#213552"/>
<path d="M56.318 27.4502C56.318 35.7345 48.7882 42.4502 39.4998 42.4502C30.2114 42.4502 22.6816 35.7345 22.6816 27.4502C22.6816 19.1659 30.2114 12.4502 39.4998 12.4502C48.7882 12.4502 56.318 19.1659 56.318 27.4502Z" fill="#213552" stroke="#FFD700" stroke-width="2" stroke-miterlimit="10"/>
<path d="M31.2441 39.4414V16.2881H35.8592V39.4414H31.2441Z" fill="#FFD700"/>
<path d="M43.2196 39.3046L32.75 19.0434C32.75 19.0434 35.3177 16.6808 35.8451 16.3686C35.9851 16.2858 36.7886 16.6529 36.7886 16.6529L47.2582 36.9141L43.2196 39.3046Z" fill="#FFD700"/>
<path d="M43.1413 38.7759L42.8516 15.6247L47.4662 15.5586L47.7559 38.7098L43.1413 38.7759Z" fill="#FFD700"/>
<path d="M70.128 14.304C70.928 14.304 71.576 14.548 72.072 15.036C72.568 15.516 72.816 16.212 72.816 17.124V21H71.736V17.28C71.736 16.624 71.572 16.124 71.244 15.78C70.916 15.428 70.468 15.252 69.9 15.252C69.324 15.252 68.864 15.432 68.52 15.792C68.184 16.152 68.016 16.676 68.016 17.364V21H66.924V14.424H68.016V15.36C68.232 15.024 68.524 14.764 68.892 14.58C69.268 14.396 69.68 14.304 70.128 14.304ZM80.5998 17.46C80.5998 17.668 80.5878 17.888 80.5638 18.12H75.3078C75.3478 18.768 75.5678 19.276 75.9678 19.644C76.3758 20.004 76.8678 20.184 77.4438 20.184C77.9158 20.184 78.3078 20.076 78.6198 19.86C78.9398 19.636 79.1638 19.34 79.2918 18.972H80.4678C80.2918 19.604 79.9398 20.12 79.4118 20.52C78.8838 20.912 78.2278 21.108 77.4438 21.108C76.8198 21.108 76.2598 20.968 75.7638 20.688C75.2758 20.408 74.8918 20.012 74.6118 19.5C74.3318 18.98 74.1918 18.38 74.1918 17.7C74.1918 17.02 74.3278 16.424 74.5998 15.912C74.8718 15.4 75.2518 15.008 75.7398 14.736C76.2358 14.456 76.8038 14.316 77.4438 14.316C78.0678 14.316 78.6198 14.452 79.0998 14.724C79.5798 14.996 79.9478 15.372 80.2038 15.852C80.4678 16.324 80.5998 16.86 80.5998 17.46ZM79.4718 17.232C79.4718 16.816 79.3798 16.46 79.1958 16.164C79.0118 15.86 78.7598 15.632 78.4398 15.48C78.1278 15.32 77.7798 15.24 77.3958 15.24C76.8438 15.24 76.3718 15.416 75.9798 15.768C75.5958 16.12 75.3758 16.608 75.3198 17.232H79.4718ZM82.6052 13.356C82.3972 13.356 82.2212 13.284 82.0772 13.14C81.9332 12.996 81.8612 12.82 81.8612 12.612C81.8612 12.404 81.9332 12.228 82.0772 12.084C82.2212 11.94 82.3972 11.868 82.6052 11.868C82.8052 11.868 82.9732 11.94 83.1092 12.084C83.2532 12.228 83.3252 12.404 83.3252 12.612C83.3252 12.82 83.2532 12.996 83.1092 13.14C82.9732 13.284 82.8052 13.356 82.6052 13.356ZM83.1332 14.424V21H82.0412V14.424H83.1332ZM87.7063 14.316C88.2743 14.316 88.7703 14.44 89.1943 14.688C89.6263 14.936 89.9463 15.248 90.1543 15.624V14.424H91.2583V21.144C91.2583 21.744 91.1303 22.276 90.8743 22.74C90.6183 23.212 90.2503 23.58 89.7703 23.844C89.2983 24.108 88.7463 24.24 88.1143 24.24C87.2503 24.24 86.5303 24.036 85.9543 23.628C85.3783 23.22 85.0383 22.664 84.9343 21.96H86.0143C86.1343 22.36 86.3823 22.68 86.7583 22.92C87.1343 23.168 87.5863 23.292 88.1143 23.292C88.7143 23.292 89.2023 23.104 89.5783 22.728C89.9623 22.352 90.1543 21.824 90.1543 21.144V19.764C89.9383 20.148 89.6183 20.468 89.1943 20.724C88.7703 20.98 88.2743 21.108 87.7063 21.108C87.1223 21.108 86.5903 20.964 86.1103 20.676C85.6383 20.388 85.2663 19.984 84.9943 19.464C84.7223 18.944 84.5863 18.352 84.5863 17.688C84.5863 17.016 84.7223 16.428 84.9943 15.924C85.2663 15.412 85.6383 15.016 86.1103 14.736C86.5903 14.456 87.1223 14.316 87.7063 14.316ZM90.1543 17.7C90.1543 17.204 90.0543 16.772 89.8543 16.404C89.6543 16.036 89.3823 15.756 89.0383 15.564C88.7023 15.364 88.3303 15.264 87.9223 15.264C87.5143 15.264 87.1423 15.36 86.8063 15.552C86.4703 15.744 86.2023 16.024 86.0023 16.392C85.8023 16.76 85.7023 17.192 85.7023 17.688C85.7023 18.192 85.8023 18.632 86.0023 19.008C86.2023 19.376 86.4703 19.66 86.8063 19.86C87.1423 20.052 87.5143 20.148 87.9223 20.148C88.3303 20.148 88.7023 20.052 89.0383 19.86C89.3823 19.66 89.6543 19.376 89.8543 19.008C90.0543 18.632 90.1543 18.196 90.1543 17.7ZM96.3677 14.304C96.8637 14.304 97.3117 14.412 97.7117 14.628C98.1117 14.836 98.4237 15.152 98.6477 15.576C98.8797 16 98.9957 16.516 98.9957 17.124V21H97.9157V17.28C97.9157 16.624 97.7517 16.124 97.4237 15.78C97.0957 15.428 96.6477 15.252 96.0797 15.252C95.5037 15.252 95.0437 15.432 94.6997 15.792C94.3637 16.152 94.1957 16.676 94.1957 17.364V21H93.1037V12.12H94.1957V15.36C94.4117 15.024 94.7077 14.764 95.0837 14.58C95.4677 14.396 95.8957 14.304 96.3677 14.304ZM103.107 21.108C102.603 21.108 102.151 21.024 101.751 20.856C101.351 20.68 101.035 20.44 100.803 20.136C100.571 19.824 100.443 19.468 100.419 19.068H101.547C101.579 19.396 101.731 19.664 102.003 19.872C102.283 20.08 102.647 20.184 103.095 20.184C103.511 20.184 103.839 20.092 104.079 19.908C104.319 19.724 104.439 19.492 104.439 19.212C104.439 18.924 104.311 18.712 104.055 18.576C103.799 18.432 103.403 18.292 102.867 18.156C102.379 18.028 101.979 17.9 101.667 17.772C101.363 17.636 101.099 17.44 100.875 17.184C100.659 16.92 100.551 16.576 100.551 16.152C100.551 15.816 100.651 15.508 100.851 15.228C101.051 14.948 101.335 14.728 101.703 14.568C102.071 14.4 102.491 14.316 102.963 14.316C103.691 14.316 104.279 14.5 104.727 14.868C105.175 15.236 105.415 15.74 105.447 16.38H104.355C104.331 16.036 104.191 15.76 103.935 15.552C103.687 15.344 103.351 15.24 102.927 15.24C102.535 15.24 102.223 15.324 101.991 15.492C101.759 15.66 101.643 15.88 101.643 16.152C101.643 16.368 101.711 16.548 101.847 16.692C101.991 16.828 102.167 16.94 102.375 17.028C102.591 17.108 102.887 17.2 103.263 17.304C103.735 17.432 104.119 17.56 104.415 17.688C104.711 17.808 104.963 17.992 105.171 18.24C105.387 18.488 105.499 18.812 105.507 19.212C105.507 19.572 105.407 19.896 105.207 20.184C105.007 20.472 104.723 20.7 104.355 20.868C103.995 21.028 103.579 21.108 103.107 21.108ZM110.313 14.304C110.809 14.304 111.257 14.412 111.657 14.628C112.057 14.836 112.369 15.152 112.593 15.576C112.825 16 112.941 16.516 112.941 17.124V21H111.861V17.28C111.861 16.624 111.697 16.124 111.369 15.78C111.041 15.428 110.593 15.252 110.025 15.252C109.449 15.252 108.989 15.432 108.645 15.792C108.309 16.152 108.141 16.676 108.141 17.364V21H107.049V12.12H108.141V15.36C108.357 15.024 108.653 14.764 109.029 14.58C109.413 14.396 109.841 14.304 110.313 14.304ZM117.593 21.108C116.977 21.108 116.417 20.968 115.913 20.688C115.417 20.408 115.025 20.012 114.737 19.5C114.457 18.98 114.317 18.38 114.317 17.7C114.317 17.028 114.461 16.436 114.749 15.924C115.045 15.404 115.445 15.008 115.949 14.736C116.453 14.456 117.017 14.316 117.641 14.316C118.265 14.316 118.829 14.456 119.333 14.736C119.837 15.008 120.233 15.4 120.521 15.912C120.817 16.424 120.965 17.02 120.965 17.7C120.965 18.38 120.813 18.98 120.509 19.5C120.213 20.012 119.809 20.408 119.297 20.688C118.785 20.968 118.217 21.108 117.593 21.108ZM117.593 20.148C117.985 20.148 118.353 20.056 118.697 19.872C119.041 19.688 119.317 19.412 119.525 19.044C119.741 18.676 119.849 18.228 119.849 17.7C119.849 17.172 119.745 16.724 119.537 16.356C119.329 15.988 119.057 15.716 118.721 15.54C118.385 15.356 118.021 15.264 117.629 15.264C117.229 15.264 116.861 15.356 116.525 15.54C116.197 15.716 115.933 15.988 115.733 16.356C115.533 16.724 115.433 17.172 115.433 17.7C115.433 18.236 115.529 18.688 115.721 19.056C115.921 19.424 116.185 19.7 116.513 19.884C116.841 20.06 117.201 20.148 117.593 20.148ZM123.493 15.636C123.709 15.26 124.029 14.948 124.453 14.7C124.885 14.444 125.385 14.316 125.953 14.316C126.537 14.316 127.065 14.456 127.537 14.736C128.017 15.016 128.393 15.412 128.665 15.924C128.937 16.428 129.073 17.016 129.073 17.688C129.073 18.352 128.937 18.944 128.665 19.464C128.393 19.984 128.017 20.388 127.537 20.676C127.065 20.964 126.537 21.108 125.953 21.108C125.393 21.108 124.897 20.984 124.465 20.736C124.041 20.48 123.717 20.164 123.493 19.788V24.12H122.401V14.424H123.493V15.636ZM127.957 17.688C127.957 17.192 127.857 16.76 127.657 16.392C127.457 16.024 127.185 15.744 126.841 15.552C126.505 15.36 126.133 15.264 125.725 15.264C125.325 15.264 124.953 15.364 124.609 15.564C124.273 15.756 124.001 16.04 123.793 16.416C123.593 16.784 123.493 17.212 123.493 17.7C123.493 18.196 123.593 18.632 123.793 19.008C124.001 19.376 124.273 19.66 124.609 19.86C124.953 20.052 125.325 20.148 125.725 20.148C126.133 20.148 126.505 20.052 126.841 19.86C127.185 19.66 127.457 19.376 127.657 19.008C127.857 18.632 127.957 18.192 127.957 17.688ZM79.776 30.96H78.204V39H77.196V30.96H74.664V39H73.668V35.076L71.772 35.064C71.916 35.376 71.988 35.704 71.988 36.048C71.988 36.752 71.764 37.316 71.316 37.74C70.876 38.156 70.288 38.364 69.552 38.364C69.04 38.364 68.58 38.264 68.172 38.064C67.772 37.856 67.456 37.568 67.224 37.2C67 36.832 66.888 36.408 66.888 35.928H67.824C67.824 36.384 67.976 36.76 68.28 37.056C68.592 37.352 68.992 37.5 69.48 37.5C69.96 37.5 70.344 37.36 70.632 37.08C70.92 36.792 71.064 36.42 71.064 35.964C71.064 35.62 70.972 35.32 70.788 35.064H70.752L70.74 34.992C70.444 34.624 69.992 34.44 69.384 34.44H68.916V33.624H69.384C69.872 33.624 70.252 33.492 70.524 33.228C70.796 32.956 70.932 32.64 70.932 32.28C70.932 31.848 70.792 31.504 70.512 31.248C70.232 30.992 69.88 30.864 69.456 30.864C69.016 30.864 68.648 30.992 68.352 31.248C68.056 31.496 67.908 31.828 67.908 32.244H66.972C66.972 31.564 67.204 31.024 67.668 30.624C68.132 30.216 68.728 30.012 69.456 30.012C70.16 30.012 70.732 30.208 71.172 30.6C71.612 30.984 71.832 31.5 71.832 32.148C71.832 32.612 71.704 33.008 71.448 33.336C71.2 33.656 70.84 33.876 70.368 33.996V34.02C70.592 34.052 70.808 34.128 71.016 34.248H73.668V30.12H79.776V30.96ZM87.5431 30.96H85.9711V39H84.9751V35.604C84.7751 35.932 84.5031 36.188 84.1591 36.372C83.8231 36.548 83.4231 36.636 82.9591 36.636C82.1191 36.636 81.4791 36.368 81.0391 35.832C80.6071 35.296 80.3911 34.572 80.3911 33.66V30.96H79.0471V30.12H87.5431V30.96ZM84.9751 30.96H81.3871V33.66C81.3871 34.332 81.5351 34.856 81.8311 35.232C82.1351 35.6 82.5911 35.784 83.1991 35.784C83.7511 35.784 84.1831 35.608 84.4951 35.256C84.8151 34.896 84.9751 34.452 84.9751 33.924V30.96ZM93.7504 30.96V33.564C93.9264 33.18 94.1904 32.872 94.5424 32.64C94.8944 32.408 95.3224 32.292 95.8264 32.292C96.3064 32.292 96.7384 32.408 97.1224 32.64C97.5064 32.872 97.8024 33.196 98.0104 33.612C98.2264 34.02 98.3344 34.488 98.3344 35.016C98.3344 35.584 98.2264 36.076 98.0104 36.492C97.7944 36.908 97.4944 37.228 97.1104 37.452C96.7344 37.668 96.3064 37.776 95.8264 37.776C95.5304 37.776 95.2824 37.748 95.0824 37.692V36.9C95.2104 36.932 95.3784 36.948 95.5864 36.948C96.0904 36.948 96.5024 36.78 96.8224 36.444C97.1504 36.1 97.3144 35.632 97.3144 35.04C97.3144 34.472 97.1464 34.016 96.8104 33.672C96.4744 33.328 96.0544 33.156 95.5504 33.156C94.9584 33.156 94.5104 33.352 94.2064 33.744C93.9024 34.136 93.7504 34.6 93.7504 35.136V39H92.7904V36.576C92.6064 36.952 92.3304 37.256 91.9624 37.488C91.6024 37.712 91.1584 37.824 90.6304 37.824C90.1344 37.824 89.6904 37.712 89.2984 37.488C88.9144 37.256 88.6144 36.932 88.3984 36.516C88.1824 36.092 88.0744 35.6 88.0744 35.04C88.0744 34.488 88.1824 34.004 88.3984 33.588C88.6224 33.172 88.9304 32.852 89.3224 32.628C89.7144 32.404 90.1624 32.292 90.6664 32.292C91.1784 32.292 91.6144 32.404 91.9744 32.628C92.3344 32.852 92.6064 33.148 92.7904 33.516V30.96H86.9104V30.12H99.4864V30.96H93.7504ZM90.9424 36.984C91.3504 36.984 91.6904 36.888 91.9624 36.696C92.2424 36.504 92.4504 36.264 92.5864 35.976C92.7224 35.68 92.7904 35.376 92.7904 35.064C92.7904 34.744 92.7224 34.44 92.5864 34.152C92.4584 33.856 92.2544 33.616 91.9744 33.432C91.6944 33.248 91.3504 33.156 90.9424 33.156C90.4144 33.156 89.9704 33.328 89.6104 33.672C89.2584 34.016 89.0824 34.472 89.0824 35.04C89.0824 35.64 89.2544 36.116 89.5984 36.468C89.9504 36.812 90.3984 36.984 90.9424 36.984ZM103.016 30.12V30.96H101.444V39H100.436V30.96H98.8518V30.12H100.46V30.012C100.46 29.324 100.224 28.772 99.7518 28.356C99.2878 27.94 98.4118 27.732 97.1238 27.732C95.8438 27.732 94.9638 27.944 94.4838 28.368C94.0038 28.784 93.7638 29.332 93.7638 30.012V30.36H92.8038V29.952C92.8038 29.016 93.1398 28.272 93.8118 27.72C94.4758 27.168 95.5798 26.892 97.1238 26.892C98.6918 26.892 99.8038 27.168 100.46 27.72C101.116 28.264 101.444 29.008 101.444 29.952V30.12H103.016ZM114.482 30.12V30.96H112.91V39H111.95V36.648C111.75 37.024 111.454 37.328 111.062 37.56C110.67 37.792 110.202 37.908 109.658 37.908C109.114 37.908 108.618 37.792 108.17 37.56C107.73 37.32 107.382 36.984 107.126 36.552C106.87 36.112 106.742 35.608 106.742 35.04C106.742 34.472 106.866 33.972 107.114 33.54C107.37 33.1 107.718 32.764 108.158 32.532C108.598 32.292 109.086 32.172 109.622 32.172C110.166 32.172 110.634 32.292 111.026 32.532C111.426 32.764 111.734 33.068 111.95 33.444V30.96H105.578V30.12H114.482ZM109.814 32.856C109.23 32.856 108.738 33.032 108.338 33.384L111.614 36.264C111.862 35.896 111.986 35.48 111.986 35.016C111.986 34.656 111.902 34.312 111.734 33.984C111.574 33.648 111.33 33.376 111.002 33.168C110.674 32.96 110.278 32.856 109.814 32.856ZM107.63 35.04C107.63 35.472 107.726 35.852 107.918 36.18C108.118 36.5 108.386 36.744 108.722 36.912C109.058 37.08 109.43 37.164 109.838 37.164C110.438 37.164 110.93 36.984 111.314 36.624L108.014 33.744C107.758 34.112 107.63 34.544 107.63 35.04ZM123.44 30.12V30.96H121.856V39H120.86V30.96H118.724V34.2C118.724 34.824 118.56 35.332 118.232 35.724C117.912 36.116 117.42 36.312 116.756 36.312C116.108 36.312 115.612 36.128 115.268 35.76C114.924 35.384 114.752 34.884 114.752 34.26V33.9H115.736V34.272C115.736 34.6 115.812 34.88 115.964 35.112C116.124 35.336 116.376 35.448 116.72 35.448C117.088 35.448 117.344 35.336 117.488 35.112C117.64 34.88 117.716 34.588 117.716 34.236V30.96H113.852V30.12H123.44ZM131.337 30.96V32.556C131.889 32.692 132.325 32.996 132.645 33.468C132.973 33.932 133.137 34.52 133.137 35.232C133.137 35.8 133.029 36.308 132.813 36.756C132.597 37.196 132.273 37.544 131.841 37.8C131.409 38.048 130.889 38.172 130.281 38.172C130.217 38.172 130.081 38.164 129.873 38.148V37.272C130.049 37.288 130.165 37.296 130.221 37.296C130.821 37.296 131.289 37.108 131.625 36.732C131.961 36.356 132.129 35.864 132.129 35.256C132.129 34.704 131.993 34.252 131.721 33.9C131.457 33.548 131.073 33.372 130.569 33.372C130.049 33.372 129.653 33.572 129.381 33.972C129.109 34.364 128.973 34.896 128.973 35.568V35.748H128.121V35.568C128.121 34.904 127.989 34.372 127.725 33.972C127.469 33.572 127.093 33.372 126.597 33.372C126.077 33.372 125.677 33.548 125.397 33.9C125.117 34.244 124.977 34.696 124.977 35.256C124.977 35.864 125.145 36.356 125.481 36.732C125.817 37.108 126.285 37.296 126.885 37.296C126.957 37.296 127.073 37.288 127.233 37.272V38.148C127.025 38.164 126.889 38.172 126.825 38.172C126.217 38.172 125.697 38.048 125.265 37.8C124.833 37.544 124.509 37.196 124.293 36.756C124.077 36.308 123.969 35.8 123.969 35.232C123.969 34.672 124.073 34.184 124.281 33.768C124.497 33.352 124.793 33.036 125.169 32.82C125.545 32.596 125.977 32.484 126.465 32.484C127.049 32.484 127.509 32.652 127.845 32.988C128.181 33.324 128.413 33.736 128.541 34.224H128.577C128.689 33.784 128.889 33.404 129.177 33.084C129.465 32.764 129.857 32.572 130.353 32.508V30.96H122.805V30.12H134.289V30.96H131.337ZM143.696 30.96V33.564C143.872 33.18 144.136 32.872 144.488 32.64C144.84 32.408 145.268 32.292 145.772 32.292C146.252 32.292 146.684 32.408 147.068 32.64C147.452 32.872 147.748 33.196 147.956 33.612C148.172 34.02 148.28 34.488 148.28 35.016C148.28 35.584 148.172 36.076 147.956 36.492C147.74 36.908 147.44 37.228 147.056 37.452C146.68 37.668 146.252 37.776 145.772 37.776C145.476 37.776 145.228 37.748 145.028 37.692V36.9C145.156 36.932 145.324 36.948 145.532 36.948C146.036 36.948 146.448 36.78 146.768 36.444C147.096 36.1 147.26 35.632 147.26 35.04C147.26 34.472 147.092 34.016 146.756 33.672C146.42 33.328 146 33.156 145.496 33.156C144.904 33.156 144.456 33.352 144.152 33.744C143.848 34.136 143.696 34.6 143.696 35.136V39H142.736V36.576C142.552 36.952 142.276 37.256 141.908 37.488C141.548 37.712 141.104 37.824 140.576 37.824C140.08 37.824 139.636 37.712 139.244 37.488C138.86 37.256 138.56 36.932 138.344 36.516C138.128 36.092 138.02 35.6 138.02 35.04C138.02 34.488 138.128 34.004 138.344 33.588C138.568 33.172 138.876 32.852 139.268 32.628C139.66 32.404 140.108 32.292 140.612 32.292C141.124 32.292 141.56 32.404 141.92 32.628C142.28 32.852 142.552 33.148 142.736 33.516V30.96H136.856V30.12H149.432V30.96H143.696ZM140.888 36.984C141.296 36.984 141.636 36.888 141.908 36.696C142.188 36.504 142.396 36.264 142.532 35.976C142.668 35.68 142.736 35.376 142.736 35.064C142.736 34.744 142.668 34.44 142.532 34.152C142.404 33.856 142.2 33.616 141.92 33.432C141.64 33.248 141.296 33.156 140.888 33.156C140.36 33.156 139.916 33.328 139.556 33.672C139.204 34.016 139.028 34.472 139.028 35.04C139.028 35.64 139.2 36.116 139.544 36.468C139.896 36.812 140.344 36.984 140.888 36.984ZM152.961 30.12V30.96H151.389V39H150.381V30.96H148.797V30.12H150.405V30.012C150.405 29.324 150.169 28.772 149.697 28.356C149.233 27.94 148.357 27.732 147.069 27.732C145.789 27.732 144.909 27.944 144.429 28.368C143.949 28.784 143.709 29.332 143.709 30.012V30.36H142.749V29.952C142.749 29.016 143.085 28.272 143.757 27.72C144.421 27.168 145.525 26.892 147.069 26.892C148.637 26.892 149.749 27.168 150.405 27.72C151.061 28.264 151.389 29.008 151.389 29.952V30.12H152.961ZM159.964 33.144C159.308 33.144 158.768 33.316 158.344 33.66C157.92 34.004 157.708 34.492 157.708 35.124C157.708 35.692 157.876 36.148 158.212 36.492C158.556 36.836 159.016 37.008 159.592 37.008C159.872 37.008 160.14 36.948 160.396 36.828C160.66 36.708 160.876 36.528 161.044 36.288C161.212 36.04 161.296 35.736 161.296 35.376H162.22V39.192H161.236V36.888C161.068 37.168 160.812 37.392 160.468 37.56C160.132 37.728 159.752 37.812 159.328 37.812C158.816 37.812 158.36 37.704 157.96 37.488C157.56 37.272 157.248 36.96 157.024 36.552C156.8 36.144 156.688 35.656 156.688 35.088C156.688 34.48 156.828 33.968 157.108 33.552C157.388 33.128 157.768 32.812 158.248 32.604C158.736 32.388 159.28 32.28 159.88 32.28H160.744V30.96H155.524V30.12H163.48L163.468 30.96H161.74V33.144H159.964ZM163.489 40.56C163.489 41.192 163.277 41.688 162.853 42.048C162.429 42.416 161.849 42.6 161.113 42.6C160.305 42.6 159.637 42.388 159.109 41.964C158.581 41.548 158.329 40.92 158.353 40.08H159.253C159.221 40.648 159.381 41.076 159.733 41.364C160.077 41.66 160.529 41.808 161.089 41.808C161.561 41.808 161.937 41.696 162.217 41.472C162.489 41.256 162.625 40.948 162.625 40.548C162.625 40.244 162.525 39.984 162.325 39.768C162.125 39.552 161.849 39.444 161.497 39.444H161.209V38.652H161.497C162.129 38.652 162.621 38.828 162.973 39.18C163.317 39.54 163.489 40 163.489 40.56ZM169.676 30.96V33.564C169.852 33.18 170.116 32.872 170.468 32.64C170.82 32.408 171.248 32.292 171.752 32.292C172.232 32.292 172.664 32.408 173.048 32.64C173.432 32.872 173.728 33.196 173.936 33.612C174.152 34.02 174.26 34.488 174.26 35.016C174.26 35.584 174.152 36.076 173.936 36.492C173.72 36.908 173.42 37.228 173.036 37.452C172.66 37.668 172.232 37.776 171.752 37.776C171.456 37.776 171.208 37.748 171.008 37.692V36.9C171.136 36.932 171.304 36.948 171.512 36.948C172.016 36.948 172.428 36.78 172.748 36.444C173.076 36.1 173.24 35.632 173.24 35.04C173.24 34.472 173.072 34.016 172.736 33.672C172.4 33.328 171.98 33.156 171.476 33.156C170.884 33.156 170.436 33.352 170.132 33.744C169.828 34.136 169.676 34.6 169.676 35.136V39H168.716V36.576C168.532 36.952 168.256 37.256 167.888 37.488C167.528 37.712 167.084 37.824 166.556 37.824C166.06 37.824 165.616 37.712 165.224 37.488C164.84 37.256 164.54 36.932 164.324 36.516C164.108 36.092 164 35.6 164 35.04C164 34.488 164.108 34.004 164.324 33.588C164.548 33.172 164.856 32.852 165.248 32.628C165.64 32.404 166.088 32.292 166.592 32.292C167.104 32.292 167.54 32.404 167.9 32.628C168.26 32.852 168.532 33.148 168.716 33.516V30.96H162.836V30.12H175.412V30.96H169.676ZM166.868 36.984C167.276 36.984 167.616 36.888 167.888 36.696C168.168 36.504 168.376 36.264 168.512 35.976C168.648 35.68 168.716 35.376 168.716 35.064C168.716 34.744 168.648 34.44 168.512 34.152C168.384 33.856 168.18 33.616 167.9 33.432C167.62 33.248 167.276 33.156 166.868 33.156C166.34 33.156 165.896 33.328 165.536 33.672C165.184 34.016 165.008 34.472 165.008 35.04C165.008 35.64 165.18 36.116 165.524 36.468C165.876 36.812 166.324 36.984 166.868 36.984ZM176.362 39V30.96H174.778V30.12H178.942V30.96H177.37V39H176.362ZM188.421 30.96H186.837V39H185.841V33.792H183.501C183.701 33.984 183.857 34.216 183.969 34.488C184.089 34.76 184.149 35.06 184.149 35.388C184.149 35.836 184.045 36.228 183.837 36.564C183.637 36.9 183.361 37.156 183.009 37.332C182.657 37.508 182.261 37.596 181.821 37.596C181.365 37.596 180.949 37.5 180.573 37.308C180.205 37.116 179.913 36.848 179.697 36.504C179.489 36.152 179.385 35.744 179.385 35.28C179.385 34.8 179.493 34.384 179.709 34.032C179.933 33.68 180.233 33.412 180.609 33.228C180.993 33.044 181.425 32.952 181.905 32.952H185.841V30.96H178.305V30.12H188.421V30.96ZM181.833 36.744C182.273 36.744 182.633 36.608 182.913 36.336C183.201 36.056 183.345 35.7 183.345 35.268C183.345 34.844 183.201 34.492 182.913 34.212C182.633 33.932 182.273 33.792 181.833 33.792C181.385 33.792 181.017 33.932 180.729 34.212C180.441 34.484 180.297 34.84 180.297 35.28C180.297 35.712 180.437 36.064 180.717 36.336C181.005 36.608 181.377 36.744 181.833 36.744Z" fill="white"/>
<path d="M536.415 31H535.307L538.511 22.2727H539.602L542.807 31H541.699L539.091 23.6534H539.023L536.415 31ZM536.824 27.5909H541.29V28.5284H536.824V27.5909ZM544.166 31V22.2727H545.172V25.4943H545.257C545.331 25.3807 545.433 25.2358 545.564 25.0597C545.697 24.8807 545.888 24.7216 546.135 24.5824C546.385 24.4403 546.723 24.3693 547.149 24.3693C547.7 24.3693 548.186 24.5071 548.607 24.7827C549.027 25.0582 549.355 25.4489 549.591 25.9545C549.827 26.4602 549.945 27.0568 549.945 27.7443C549.945 28.4375 549.827 29.0384 549.591 29.5469C549.355 30.0526 549.028 30.4446 548.611 30.723C548.193 30.9986 547.712 31.1364 547.166 31.1364C546.746 31.1364 546.409 31.0668 546.156 30.9276C545.903 30.7855 545.709 30.625 545.572 30.446C545.436 30.2642 545.331 30.1136 545.257 29.9943H545.138V31H544.166ZM545.155 27.7273C545.155 28.2216 545.227 28.6577 545.372 29.0355C545.517 29.4105 545.729 29.7045 546.007 29.9176C546.286 30.1278 546.626 30.233 547.03 30.233C547.45 30.233 547.801 30.1222 548.082 29.9006C548.366 29.6761 548.58 29.375 548.722 28.9972C548.866 28.6165 548.939 28.1932 548.939 27.7273C548.939 27.267 548.868 26.8523 548.726 26.483C548.587 26.1108 548.375 25.8168 548.091 25.6009C547.81 25.3821 547.456 25.2727 547.03 25.2727C546.621 25.2727 546.277 25.3764 545.999 25.5838C545.72 25.7884 545.51 26.0753 545.368 26.4446C545.226 26.8111 545.155 27.2386 545.155 27.7273ZM554.142 31.1364C553.551 31.1364 553.033 30.9957 552.587 30.7145C552.143 30.4332 551.797 30.0398 551.547 29.5341C551.3 29.0284 551.176 28.4375 551.176 27.7614C551.176 27.0795 551.3 26.4844 551.547 25.9759C551.797 25.4673 552.143 25.0724 552.587 24.7912C553.033 24.5099 553.551 24.3693 554.142 24.3693C554.733 24.3693 555.25 24.5099 555.693 24.7912C556.139 25.0724 556.486 25.4673 556.733 25.9759C556.983 26.4844 557.108 27.0795 557.108 27.7614C557.108 28.4375 556.983 29.0284 556.733 29.5341C556.486 30.0398 556.139 30.4332 555.693 30.7145C555.25 30.9957 554.733 31.1364 554.142 31.1364ZM554.142 30.233C554.591 30.233 554.96 30.1179 555.25 29.8878C555.54 29.6577 555.754 29.3551 555.893 28.9801C556.033 28.6051 556.102 28.1989 556.102 27.7614C556.102 27.3239 556.033 26.9162 555.893 26.5384C555.754 26.1605 555.54 25.8551 555.25 25.6222C554.96 25.3892 554.591 25.2727 554.142 25.2727C553.693 25.2727 553.324 25.3892 553.034 25.6222C552.744 25.8551 552.53 26.1605 552.391 26.5384C552.251 26.9162 552.182 27.3239 552.182 27.7614C552.182 28.1989 552.251 28.6051 552.391 28.9801C552.53 29.3551 552.744 29.6577 553.034 29.8878C553.324 30.1179 553.693 30.233 554.142 30.233ZM562.768 28.3239V24.4545H563.774V31H562.768V29.892H562.7C562.547 30.2244 562.308 30.5071 561.984 30.7401C561.66 30.9702 561.251 31.0852 560.757 31.0852C560.348 31.0852 559.984 30.9957 559.666 30.8168C559.348 30.6349 559.098 30.3622 558.916 29.9986C558.734 29.6321 558.643 29.1705 558.643 28.6136V24.4545H559.649V28.5455C559.649 29.0227 559.782 29.4034 560.049 29.6875C560.319 29.9716 560.663 30.1136 561.081 30.1136C561.331 30.1136 561.585 30.0497 561.843 29.9219C562.105 29.794 562.324 29.598 562.5 29.3338C562.679 29.0696 562.768 28.733 562.768 28.3239ZM568.462 24.4545V25.3068H565.07V24.4545H568.462ZM566.059 22.8864H567.065V29.125C567.065 29.4091 567.106 29.6222 567.188 29.7642C567.273 29.9034 567.381 29.9972 567.512 30.0455C567.646 30.0909 567.786 30.1136 567.934 30.1136C568.045 30.1136 568.136 30.108 568.207 30.0966C568.278 30.0824 568.335 30.071 568.377 30.0625L568.582 30.9659C568.513 30.9915 568.418 31.017 568.296 31.0426C568.174 31.071 568.019 31.0852 567.832 31.0852C567.548 31.0852 567.269 31.0241 566.996 30.902C566.727 30.7798 566.502 30.5938 566.323 30.3438C566.147 30.0938 566.059 29.7784 566.059 29.3977V22.8864ZM577.475 28.3239V24.4545H578.481V31H577.475V29.892H577.407C577.254 30.2244 577.015 30.5071 576.691 30.7401C576.367 30.9702 575.958 31.0852 575.464 31.0852C575.055 31.0852 574.691 30.9957 574.373 30.8168C574.055 30.6349 573.805 30.3622 573.623 29.9986C573.441 29.6321 573.35 29.1705 573.35 28.6136V24.4545H574.356V28.5455C574.356 29.0227 574.489 29.4034 574.756 29.6875C575.026 29.9716 575.37 30.1136 575.788 30.1136C576.038 30.1136 576.292 30.0497 576.55 29.9219C576.812 29.794 577.031 29.598 577.207 29.3338C577.386 29.0696 577.475 28.733 577.475 28.3239ZM584.959 25.9205L584.056 26.1761C583.999 26.0256 583.915 25.8793 583.804 25.7372C583.696 25.5923 583.549 25.473 583.361 25.3793C583.174 25.2855 582.934 25.2386 582.641 25.2386C582.24 25.2386 581.907 25.331 581.64 25.5156C581.375 25.6974 581.243 25.929 581.243 26.2102C581.243 26.4602 581.334 26.6577 581.516 26.8026C581.698 26.9474 581.982 27.0682 582.368 27.1648L583.34 27.4034C583.925 27.5455 584.361 27.7628 584.648 28.0554C584.935 28.3452 585.078 28.7187 585.078 29.1761C585.078 29.5511 584.971 29.8864 584.755 30.1818C584.542 30.4773 584.243 30.7102 583.86 30.8807C583.476 31.0511 583.03 31.1364 582.522 31.1364C581.854 31.1364 581.301 30.9915 580.864 30.7017C580.426 30.4119 580.15 29.9886 580.033 29.4318L580.988 29.1932C581.078 29.5455 581.25 29.8097 581.503 29.9858C581.759 30.1619 582.093 30.25 582.505 30.25C582.973 30.25 583.346 30.1506 583.621 29.9517C583.9 29.75 584.039 29.5085 584.039 29.2273C584.039 29 583.959 28.8097 583.8 28.6562C583.641 28.5 583.397 28.3835 583.067 28.3068L581.976 28.0511C581.377 27.9091 580.936 27.6889 580.655 27.3906C580.377 27.0895 580.238 26.7131 580.238 26.2614C580.238 25.892 580.341 25.5653 580.549 25.2812C580.759 24.9972 581.044 24.7741 581.405 24.6122C581.769 24.4503 582.181 24.3693 582.641 24.3693C583.289 24.3693 583.797 24.5114 584.167 24.7955C584.539 25.0795 584.803 25.4545 584.959 25.9205Z" fill="white"/>
<path d="M610.08 25H609.023C608.96 24.696 608.851 24.429 608.695 24.1989C608.541 23.9688 608.354 23.7756 608.132 23.6193C607.913 23.4602 607.67 23.3409 607.403 23.2614C607.136 23.1818 606.858 23.142 606.568 23.142C606.04 23.142 605.561 23.2756 605.132 23.5426C604.706 23.8097 604.366 24.2031 604.114 24.723C603.864 25.2429 603.739 25.8807 603.739 26.6364C603.739 27.392 603.864 28.0298 604.114 28.5497C604.366 29.0696 604.706 29.4631 605.132 29.7301C605.561 29.9972 606.04 30.1307 606.568 30.1307C606.858 30.1307 607.136 30.0909 607.403 30.0114C607.67 29.9318 607.913 29.8139 608.132 29.6577C608.354 29.4986 608.541 29.304 608.695 29.0739C608.851 28.8409 608.96 28.5739 609.023 28.2727H610.08C610 28.7187 609.855 29.1179 609.645 29.4702C609.435 29.8224 609.173 30.1222 608.861 30.3693C608.548 30.6136 608.197 30.7997 607.808 30.9276C607.422 31.0554 607.009 31.1193 606.568 31.1193C605.824 31.1193 605.162 30.9375 604.582 30.5739C604.003 30.2102 603.547 29.6932 603.214 29.0227C602.882 28.3523 602.716 27.5568 602.716 26.6364C602.716 25.7159 602.882 24.9205 603.214 24.25C603.547 23.5795 604.003 23.0625 604.582 22.6989C605.162 22.3352 605.824 22.1534 606.568 22.1534C607.009 22.1534 607.422 22.2173 607.808 22.3452C608.197 22.473 608.548 22.6605 608.861 22.9077C609.173 23.152 609.435 23.4503 609.645 23.8026C609.855 24.152 610 24.5511 610.08 25ZM614.31 31.1364C613.719 31.1364 613.201 30.9957 612.755 30.7145C612.311 30.4332 611.965 30.0398 611.715 29.5341C611.468 29.0284 611.344 28.4375 611.344 27.7614C611.344 27.0795 611.468 26.4844 611.715 25.9759C611.965 25.4673 612.311 25.0724 612.755 24.7912C613.201 24.5099 613.719 24.3693 614.31 24.3693C614.901 24.3693 615.418 24.5099 615.861 24.7912C616.307 25.0724 616.654 25.4673 616.901 25.9759C617.151 26.4844 617.276 27.0795 617.276 27.7614C617.276 28.4375 617.151 29.0284 616.901 29.5341C616.654 30.0398 616.307 30.4332 615.861 30.7145C615.418 30.9957 614.901 31.1364 614.31 31.1364ZM614.31 30.233C614.759 30.233 615.128 30.1179 615.418 29.8878C615.708 29.6577 615.922 29.3551 616.061 28.9801C616.201 28.6051 616.27 28.1989 616.27 27.7614C616.27 27.3239 616.201 26.9162 616.061 26.5384C615.922 26.1605 615.708 25.8551 615.418 25.6222C615.128 25.3892 614.759 25.2727 614.31 25.2727C613.861 25.2727 613.492 25.3892 613.202 25.6222C612.912 25.8551 612.698 26.1605 612.559 26.5384C612.419 26.9162 612.35 27.3239 612.35 27.7614C612.35 28.1989 612.419 28.6051 612.559 28.9801C612.698 29.3551 612.912 29.6577 613.202 29.8878C613.492 30.1179 613.861 30.233 614.31 30.233ZM619.817 27.0625V31H618.811V24.4545H619.783V25.4773H619.868C620.021 25.1449 620.254 24.8778 620.567 24.6761C620.879 24.4716 621.283 24.3693 621.777 24.3693C622.22 24.3693 622.608 24.4602 622.94 24.642C623.273 24.821 623.531 25.0938 623.716 25.4602C623.901 25.8239 623.993 26.2841 623.993 26.8409V31H622.987V26.9091C622.987 26.3949 622.854 25.9943 622.587 25.7074C622.32 25.4176 621.953 25.2727 621.487 25.2727C621.166 25.2727 620.879 25.3423 620.626 25.4815C620.376 25.6207 620.179 25.8239 620.034 26.0909C619.889 26.358 619.817 26.6818 619.817 27.0625ZM628.677 24.4545V25.3068H625.285V24.4545H628.677ZM626.274 22.8864H627.279V29.125C627.279 29.4091 627.321 29.6222 627.403 29.7642C627.488 29.9034 627.596 29.9972 627.727 30.0455C627.86 30.0909 628.001 30.1136 628.149 30.1136C628.26 30.1136 628.35 30.108 628.422 30.0966C628.493 30.0824 628.549 30.071 628.592 30.0625L628.797 30.9659C628.728 30.9915 628.633 31.017 628.511 31.0426C628.389 31.071 628.234 31.0852 628.047 31.0852C627.762 31.0852 627.484 31.0241 627.211 30.902C626.941 30.7798 626.717 30.5938 626.538 30.3438C626.362 30.0938 626.274 29.7784 626.274 29.3977V22.8864ZM632.116 31.1534C631.701 31.1534 631.325 31.0753 630.987 30.919C630.649 30.7599 630.38 30.5312 630.181 30.233C629.983 29.9318 629.883 29.5682 629.883 29.142C629.883 28.767 629.957 28.4631 630.105 28.2301C630.252 27.9943 630.45 27.8097 630.697 27.6761C630.944 27.5426 631.217 27.4432 631.515 27.3778C631.816 27.3097 632.119 27.2557 632.423 27.2159C632.821 27.1648 633.143 27.1264 633.39 27.1009C633.64 27.0724 633.822 27.0256 633.936 26.9602C634.052 26.8949 634.11 26.7812 634.11 26.6193V26.5852C634.11 26.1648 633.995 25.8381 633.765 25.6051C633.538 25.3722 633.193 25.2557 632.73 25.2557C632.25 25.2557 631.873 25.3608 631.6 25.571C631.328 25.7812 631.136 26.0057 631.025 26.2443L630.071 25.9034C630.241 25.5057 630.468 25.196 630.752 24.9744C631.039 24.75 631.352 24.5937 631.69 24.5057C632.031 24.4148 632.366 24.3693 632.696 24.3693C632.906 24.3693 633.147 24.3949 633.42 24.446C633.696 24.4943 633.961 24.5952 634.217 24.7486C634.475 24.902 634.69 25.1335 634.86 25.4432C635.031 25.7528 635.116 26.1676 635.116 26.6875V31H634.11V30.1136H634.059C633.991 30.2557 633.877 30.4077 633.718 30.5696C633.559 30.7315 633.348 30.8693 633.083 30.983C632.819 31.0966 632.497 31.1534 632.116 31.1534ZM632.27 30.25C632.667 30.25 633.002 30.1719 633.275 30.0156C633.551 29.8594 633.758 29.6577 633.897 29.4105C634.039 29.1634 634.11 28.9034 634.11 28.6307V27.7102C634.068 27.7614 633.974 27.8082 633.829 27.8509C633.687 27.8906 633.522 27.9261 633.335 27.9574C633.15 27.9858 632.97 28.0114 632.794 28.0341C632.62 28.054 632.48 28.071 632.372 28.0852C632.11 28.1193 631.866 28.1747 631.639 28.2514C631.414 28.3253 631.233 28.4375 631.093 28.5881C630.957 28.7358 630.889 28.9375 630.889 29.1932C630.889 29.5426 631.018 29.8068 631.277 29.9858C631.538 30.1619 631.869 30.25 632.27 30.25ZM639.611 31.1364C638.997 31.1364 638.469 30.9915 638.026 30.7017C637.582 30.4119 637.241 30.0128 637.003 29.5043C636.764 28.9957 636.645 28.4148 636.645 27.7614C636.645 27.0966 636.767 26.5099 637.011 26.0014C637.259 25.4901 637.602 25.0909 638.043 24.804C638.486 24.5142 639.003 24.3693 639.594 24.3693C640.054 24.3693 640.469 24.4545 640.838 24.625C641.207 24.7955 641.51 25.0341 641.746 25.3409C641.982 25.6477 642.128 26.0057 642.185 26.4148H641.179C641.102 26.1165 640.932 25.8523 640.668 25.6222C640.406 25.3892 640.054 25.2727 639.611 25.2727C639.219 25.2727 638.875 25.375 638.58 25.5795C638.287 25.7812 638.058 26.0668 637.893 26.4361C637.732 26.8026 637.651 27.233 637.651 27.7273C637.651 28.233 637.73 28.6733 637.889 29.0483C638.051 29.4233 638.278 29.7145 638.571 29.9219C638.866 30.1293 639.213 30.233 639.611 30.233C639.872 30.233 640.109 30.1875 640.322 30.0966C640.536 30.0057 640.716 29.875 640.864 29.7045C641.011 29.5341 641.116 29.3295 641.179 29.0909H642.185C642.128 29.4773 641.987 29.8253 641.763 30.1349C641.541 30.4418 641.247 30.6861 640.881 30.8679C640.517 31.0469 640.094 31.1364 639.611 31.1364ZM646.501 24.4545V25.3068H643.109V24.4545H646.501ZM644.098 22.8864H645.104V29.125C645.104 29.4091 645.145 29.6222 645.227 29.7642C645.313 29.9034 645.42 29.9972 645.551 30.0455C645.685 30.0909 645.825 30.1136 645.973 30.1136C646.084 30.1136 646.175 30.108 646.246 30.0966C646.317 30.0824 646.374 30.071 646.416 30.0625L646.621 30.9659C646.553 30.9915 646.457 31.017 646.335 31.0426C646.213 31.071 646.058 31.0852 645.871 31.0852C645.587 31.0852 645.308 31.0241 645.036 30.902C644.766 30.7798 644.541 30.5938 644.362 30.3438C644.186 30.0938 644.098 29.7784 644.098 29.3977V22.8864ZM655.514 28.3239V24.4545H656.52V31H655.514V29.892H655.446C655.293 30.2244 655.054 30.5071 654.73 30.7401C654.406 30.9702 653.997 31.0852 653.503 31.0852C653.094 31.0852 652.73 30.9957 652.412 30.8168C652.094 30.6349 651.844 30.3622 651.662 29.9986C651.48 29.6321 651.389 29.1705 651.389 28.6136V24.4545H652.395V28.5455C652.395 29.0227 652.528 29.4034 652.795 29.6875C653.065 29.9716 653.409 30.1136 653.827 30.1136C654.077 30.1136 654.331 30.0497 654.589 29.9219C654.851 29.794 655.07 29.598 655.246 29.3338C655.425 29.0696 655.514 28.733 655.514 28.3239ZM662.998 25.9205L662.095 26.1761C662.038 26.0256 661.954 25.8793 661.843 25.7372C661.735 25.5923 661.588 25.473 661.4 25.3793C661.213 25.2855 660.973 25.2386 660.68 25.2386C660.279 25.2386 659.946 25.331 659.679 25.5156C659.414 25.6974 659.282 25.929 659.282 26.2102C659.282 26.4602 659.373 26.6577 659.555 26.8026C659.737 26.9474 660.021 27.0682 660.407 27.1648L661.379 27.4034C661.964 27.5455 662.4 27.7628 662.687 28.0554C662.974 28.3452 663.118 28.7187 663.118 29.1761C663.118 29.5511 663.01 29.8864 662.794 30.1818C662.581 30.4773 662.282 30.7102 661.899 30.8807C661.515 31.0511 661.069 31.1364 660.561 31.1364C659.893 31.1364 659.341 30.9915 658.903 30.7017C658.466 30.4119 658.189 29.9886 658.072 29.4318L659.027 29.1932C659.118 29.5455 659.289 29.8097 659.542 29.9858C659.798 30.1619 660.132 30.25 660.544 30.25C661.012 30.25 661.385 30.1506 661.66 29.9517C661.939 29.75 662.078 29.5085 662.078 29.2273C662.078 29 661.998 28.8097 661.839 28.6562C661.68 28.5 661.436 28.3835 661.106 28.3068L660.015 28.0511C659.416 27.9091 658.975 27.6889 658.694 27.3906C658.416 27.0895 658.277 26.7131 658.277 26.2614C658.277 25.892 658.38 25.5653 658.588 25.2812C658.798 24.9972 659.083 24.7741 659.444 24.6122C659.808 24.4503 660.22 24.3693 660.68 24.3693C661.328 24.3693 661.836 24.5114 662.206 24.7955C662.578 25.0795 662.842 25.4545 662.998 25.9205Z" fill="white"/>
<path d="M692.057 31V22.2727H695.006C695.688 22.2727 696.247 22.3892 696.685 22.6222C697.122 22.8523 697.446 23.169 697.656 23.5724C697.866 23.9759 697.972 24.4347 697.972 24.9489C697.972 25.4631 697.866 25.919 697.656 26.3168C697.446 26.7145 697.124 27.027 696.689 27.2543C696.254 27.4787 695.699 27.5909 695.023 27.5909H692.636V26.6364H694.989C695.455 26.6364 695.83 26.5682 696.114 26.4318C696.401 26.2955 696.608 26.1023 696.736 25.8523C696.866 25.5994 696.932 25.2983 696.932 24.9489C696.932 24.5994 696.866 24.294 696.736 24.0327C696.605 23.7713 696.396 23.5696 696.109 23.4276C695.822 23.2827 695.443 23.2102 694.972 23.2102H693.114V31H692.057ZM696.165 27.0795L698.312 31H697.085L694.972 27.0795H696.165ZM702.27 31.1364C701.64 31.1364 701.096 30.9972 700.638 30.7188C700.184 30.4375 699.833 30.0455 699.586 29.5426C699.341 29.0369 699.219 28.4489 699.219 27.7784C699.219 27.108 699.341 26.517 699.586 26.0057C699.833 25.4915 700.176 25.0909 700.617 24.804C701.06 24.5142 701.577 24.3693 702.168 24.3693C702.509 24.3693 702.846 24.4261 703.178 24.5398C703.51 24.6534 703.813 24.8381 704.086 25.0938C704.358 25.3466 704.576 25.6818 704.738 26.0994C704.9 26.517 704.98 27.0312 704.98 27.642V28.0682H699.935V27.1989H703.958C703.958 26.8295 703.884 26.5 703.736 26.2102C703.591 25.9205 703.384 25.6918 703.114 25.5241C702.847 25.3565 702.532 25.2727 702.168 25.2727C701.767 25.2727 701.421 25.3722 701.128 25.571C700.838 25.767 700.615 26.0227 700.459 26.3381C700.303 26.6534 700.225 26.9915 700.225 27.3523V27.9318C700.225 28.4261 700.31 28.8452 700.48 29.1889C700.654 29.5298 700.894 29.7898 701.201 29.9688C701.507 30.1449 701.864 30.233 702.27 30.233C702.534 30.233 702.773 30.196 702.986 30.1222C703.202 30.0455 703.388 29.9318 703.544 29.7812C703.701 29.6278 703.821 29.4375 703.907 29.2102L704.878 29.483C704.776 29.8125 704.604 30.1023 704.363 30.3523C704.121 30.5994 703.823 30.7926 703.468 30.9318C703.113 31.0682 702.713 31.1364 702.27 31.1364ZM709.152 33.5909C708.667 33.5909 708.249 33.5284 707.9 33.4034C707.55 33.2812 707.259 33.1193 707.026 32.9176C706.796 32.7188 706.613 32.5057 706.476 32.2784L707.277 31.7159C707.368 31.8352 707.483 31.9716 707.623 32.125C707.762 32.2812 707.952 32.4162 708.194 32.5298C708.438 32.6463 708.757 32.7045 709.152 32.7045C709.681 32.7045 710.117 32.5767 710.461 32.321C710.804 32.0653 710.976 31.6648 710.976 31.1193V29.7898H710.891C710.817 29.9091 710.712 30.0568 710.576 30.233C710.442 30.4062 710.249 30.5611 709.996 30.6974C709.746 30.831 709.408 30.8977 708.982 30.8977C708.453 30.8977 707.979 30.7727 707.559 30.5227C707.141 30.2727 706.81 29.9091 706.566 29.4318C706.324 28.9545 706.203 28.375 706.203 27.6932C706.203 27.0227 706.321 26.4389 706.557 25.9418C706.793 25.4418 707.121 25.0554 707.542 24.7827C707.962 24.5071 708.448 24.3693 708.999 24.3693C709.425 24.3693 709.763 24.4403 710.013 24.5824C710.266 24.7216 710.459 24.8807 710.593 25.0597C710.729 25.2358 710.834 25.3807 710.908 25.4943H711.01V24.4545H711.982V31.1875C711.982 31.75 711.854 32.2074 711.598 32.5597C711.346 32.9148 711.005 33.1747 710.576 33.3395C710.15 33.5071 709.675 33.5909 709.152 33.5909ZM709.118 29.9943C709.522 29.9943 709.863 29.902 710.141 29.7173C710.419 29.5327 710.631 29.267 710.776 28.9205C710.921 28.5739 710.993 28.1591 710.993 27.6761C710.993 27.2045 710.922 26.7884 710.78 26.4276C710.638 26.0668 710.428 25.7841 710.15 25.5795C709.871 25.375 709.527 25.2727 709.118 25.2727C708.692 25.2727 708.337 25.3807 708.053 25.5966C707.772 25.8125 707.56 26.1023 707.418 26.4659C707.279 26.8295 707.209 27.233 707.209 27.6761C707.209 28.1307 707.28 28.5327 707.422 28.8821C707.567 29.2287 707.78 29.5014 708.061 29.7003C708.346 29.8963 708.698 29.9943 709.118 29.9943ZM713.823 31V24.4545H714.828V31H713.823ZM714.334 23.3636C714.138 23.3636 713.969 23.2969 713.827 23.1634C713.688 23.0298 713.618 22.8693 713.618 22.6818C713.618 22.4943 713.688 22.3338 713.827 22.2003C713.969 22.0668 714.138 22 714.334 22C714.53 22 714.698 22.0668 714.837 22.2003C714.979 22.3338 715.05 22.4943 715.05 22.6818C715.05 22.8693 714.979 23.0298 714.837 23.1634C714.698 23.2969 714.53 23.3636 714.334 23.3636ZM721.307 25.9205L720.403 26.1761C720.347 26.0256 720.263 25.8793 720.152 25.7372C720.044 25.5923 719.896 25.473 719.709 25.3793C719.521 25.2855 719.281 25.2386 718.989 25.2386C718.588 25.2386 718.254 25.331 717.987 25.5156C717.723 25.6974 717.591 25.929 717.591 26.2102C717.591 26.4602 717.682 26.6577 717.864 26.8026C718.045 26.9474 718.33 27.0682 718.716 27.1648L719.688 27.4034C720.273 27.5455 720.709 27.7628 720.996 28.0554C721.283 28.3452 721.426 28.7187 721.426 29.1761C721.426 29.5511 721.318 29.8864 721.102 30.1818C720.889 30.4773 720.591 30.7102 720.207 30.8807C719.824 31.0511 719.378 31.1364 718.869 31.1364C718.202 31.1364 717.649 30.9915 717.212 30.7017C716.774 30.4119 716.497 29.9886 716.381 29.4318L717.335 29.1932C717.426 29.5455 717.598 29.8097 717.851 29.9858C718.107 30.1619 718.44 30.25 718.852 30.25C719.321 30.25 719.693 30.1506 719.969 29.9517C720.247 29.75 720.386 29.5085 720.386 29.2273C720.386 29 720.307 28.8097 720.148 28.6562C719.989 28.5 719.744 28.3835 719.415 28.3068L718.324 28.0511C717.724 27.9091 717.284 27.6889 717.003 27.3906C716.724 27.0895 716.585 26.7131 716.585 26.2614C716.585 25.892 716.689 25.5653 716.896 25.2812C717.107 24.9972 717.392 24.7741 717.753 24.6122C718.116 24.4503 718.528 24.3693 718.989 24.3693C719.636 24.3693 720.145 24.5114 720.514 24.7955C720.886 25.0795 721.151 25.4545 721.307 25.9205ZM725.787 24.4545V25.3068H722.395V24.4545H725.787ZM723.383 22.8864H724.389V29.125C724.389 29.4091 724.43 29.6222 724.512 29.7642C724.598 29.9034 724.706 29.9972 724.836 30.0455C724.97 30.0909 725.11 30.1136 725.258 30.1136C725.369 30.1136 725.46 30.108 725.531 30.0966C725.602 30.0824 725.659 30.071 725.701 30.0625L725.906 30.9659C725.838 30.9915 725.743 31.017 725.62 31.0426C725.498 31.071 725.343 31.0852 725.156 31.0852C724.872 31.0852 724.593 31.0241 724.321 30.902C724.051 30.7798 723.826 30.5938 723.647 30.3438C723.471 30.0938 723.383 29.7784 723.383 29.3977V22.8864ZM729.973 31.1364C729.343 31.1364 728.799 30.9972 728.341 30.7188C727.887 30.4375 727.536 30.0455 727.289 29.5426C727.044 29.0369 726.922 28.4489 726.922 27.7784C726.922 27.108 727.044 26.517 727.289 26.0057C727.536 25.4915 727.88 25.0909 728.32 24.804C728.763 24.5142 729.28 24.3693 729.871 24.3693C730.212 24.3693 730.549 24.4261 730.881 24.5398C731.213 24.6534 731.516 24.8381 731.789 25.0938C732.061 25.3466 732.279 25.6818 732.441 26.0994C732.603 26.517 732.684 27.0312 732.684 27.642V28.0682H727.638V27.1989H731.661C731.661 26.8295 731.587 26.5 731.439 26.2102C731.294 25.9205 731.087 25.6918 730.817 25.5241C730.55 25.3565 730.235 25.2727 729.871 25.2727C729.471 25.2727 729.124 25.3722 728.831 25.571C728.542 25.767 728.319 26.0227 728.162 26.3381C728.006 26.6534 727.928 26.9915 727.928 27.3523V27.9318C727.928 28.4261 728.013 28.8452 728.184 29.1889C728.357 29.5298 728.597 29.7898 728.904 29.9688C729.211 30.1449 729.567 30.233 729.973 30.233C730.238 30.233 730.476 30.196 730.689 30.1222C730.905 30.0455 731.091 29.9318 731.248 29.7812C731.404 29.6278 731.525 29.4375 731.61 29.2102L732.581 29.483C732.479 29.8125 732.307 30.1023 732.066 30.3523C731.824 30.5994 731.526 30.7926 731.171 30.9318C730.816 31.0682 730.417 31.1364 729.973 31.1364ZM734.213 31V24.4545H735.185V25.4432H735.253C735.373 25.1193 735.588 24.8565 735.901 24.6548C736.213 24.4531 736.566 24.3523 736.958 24.3523C737.032 24.3523 737.124 24.3537 737.235 24.3565C737.346 24.3594 737.429 24.3636 737.486 24.3693V25.392C737.452 25.3835 737.374 25.3707 737.252 25.3537C737.132 25.3338 737.006 25.3239 736.873 25.3239C736.554 25.3239 736.27 25.3906 736.02 25.5241C735.773 25.6548 735.577 25.8366 735.432 26.0696C735.29 26.2997 735.219 26.5625 735.219 26.858V31H734.213Z" fill="white"/>
<path d="M482.057 31V22.2727H483.114V26.1591H487.767V22.2727H488.824V31H487.767V27.0966H483.114V31H482.057ZM493.462 31.1364C492.871 31.1364 492.353 30.9957 491.907 30.7145C491.464 30.4332 491.117 30.0398 490.867 29.5341C490.62 29.0284 490.496 28.4375 490.496 27.7614C490.496 27.0795 490.62 26.4844 490.867 25.9759C491.117 25.4673 491.464 25.0724 491.907 24.7912C492.353 24.5099 492.871 24.3693 493.462 24.3693C494.053 24.3693 494.57 24.5099 495.013 24.7912C495.46 25.0724 495.806 25.4673 496.053 25.9759C496.303 26.4844 496.428 27.0795 496.428 27.7614C496.428 28.4375 496.303 29.0284 496.053 29.5341C495.806 30.0398 495.46 30.4332 495.013 30.7145C494.57 30.9957 494.053 31.1364 493.462 31.1364ZM493.462 30.233C493.911 30.233 494.281 30.1179 494.57 29.8878C494.86 29.6577 495.075 29.3551 495.214 28.9801C495.353 28.6051 495.423 28.1989 495.423 27.7614C495.423 27.3239 495.353 26.9162 495.214 26.5384C495.075 26.1605 494.86 25.8551 494.57 25.6222C494.281 25.3892 493.911 25.2727 493.462 25.2727C493.013 25.2727 492.644 25.3892 492.354 25.6222C492.065 25.8551 491.85 26.1605 491.711 26.5384C491.572 26.9162 491.502 27.3239 491.502 27.7614C491.502 28.1989 491.572 28.6051 491.711 28.9801C491.85 29.3551 492.065 29.6577 492.354 29.8878C492.644 30.1179 493.013 30.233 493.462 30.233ZM497.963 31V24.4545H498.935V25.4773H499.02C499.157 25.1278 499.377 24.8565 499.681 24.6634C499.985 24.4673 500.35 24.3693 500.776 24.3693C501.208 24.3693 501.567 24.4673 501.854 24.6634C502.144 24.8565 502.37 25.1278 502.532 25.4773H502.6C502.767 25.1392 503.019 24.8707 503.354 24.6719C503.689 24.4702 504.091 24.3693 504.56 24.3693C505.145 24.3693 505.624 24.5526 505.996 24.919C506.368 25.2827 506.554 25.8494 506.554 26.6193V31H505.549V26.6193C505.549 26.1364 505.417 25.7912 505.152 25.5838C504.888 25.3764 504.577 25.2727 504.219 25.2727C503.759 25.2727 503.402 25.4119 503.15 25.6903C502.897 25.9659 502.77 26.3153 502.77 26.7386V31H501.748V26.517C501.748 26.1449 501.627 25.8452 501.385 25.6179C501.144 25.3878 500.833 25.2727 500.452 25.2727C500.191 25.2727 499.946 25.3423 499.719 25.4815C499.495 25.6207 499.313 25.8139 499.174 26.0611C499.037 26.3054 498.969 26.5881 498.969 26.9091V31H497.963ZM511.137 31.1364C510.507 31.1364 509.963 30.9972 509.505 30.7188C509.051 30.4375 508.7 30.0455 508.453 29.5426C508.208 29.0369 508.086 28.4489 508.086 27.7784C508.086 27.108 508.208 26.517 508.453 26.0057C508.7 25.4915 509.044 25.0909 509.484 24.804C509.927 24.5142 510.444 24.3693 511.035 24.3693C511.376 24.3693 511.713 24.4261 512.045 24.5398C512.377 24.6534 512.68 24.8381 512.953 25.0938C513.225 25.3466 513.443 25.6818 513.605 26.0994C513.767 26.517 513.848 27.0312 513.848 27.642V28.0682H508.802V27.1989H512.825C512.825 26.8295 512.751 26.5 512.603 26.2102C512.458 25.9205 512.251 25.6918 511.981 25.5241C511.714 25.3565 511.399 25.2727 511.035 25.2727C510.635 25.2727 510.288 25.3722 509.995 25.571C509.706 25.767 509.483 26.0227 509.326 26.3381C509.17 26.6534 509.092 26.9915 509.092 27.3523V27.9318C509.092 28.4261 509.177 28.8452 509.348 29.1889C509.521 29.5298 509.761 29.7898 510.068 29.9688C510.375 30.1449 510.731 30.233 511.137 30.233C511.402 30.233 511.64 30.196 511.853 30.1222C512.069 30.0455 512.255 29.9318 512.412 29.7812C512.568 29.6278 512.689 29.4375 512.774 29.2102L513.745 29.483C513.643 29.8125 513.471 30.1023 513.23 30.3523C512.988 30.5994 512.69 30.7926 512.335 30.9318C511.98 31.0682 511.581 31.1364 511.137 31.1364Z" fill="white"/>
<defs>
<filter id="filter0_d_706_13" x="0" y="0" width="18" height="62" filterUnits="userSpaceOnUse" color-interpolation-filters="sRGB">
<feFlood flood-opacity="0" result="BackgroundImageFix"/>
<feColorMatrix in="SourceAlpha" type="matrix" values="0 0 0 0 0 0 0 0 0 0 0 0 0 0 0 0 0 0 127 0" result="hardAlpha"/>
<feOffset dy="4"/>
<feGaussianBlur stdDeviation="2"/>
<feComposite in2="hardAlpha" operator="out"/>
<feColorMatrix type="matrix" values="0 0 0 0 0.0509804 0 0 0 0 0.470588 0 0 0 0 0.560784 0 0 0 0.39 0"/>
<feBlend mode="normal" in2="BackgroundImageFix" result="effect1_dropShadow_706_13"/>
<feBlend mode="normal" in="SourceGraphic" in2="effect1_dropShadow_706_13" result="shape"/>
</filter>
<filter id="filter1_d_706_13" x="0" y="3" width="765.316" height="56" filterUnits="userSpaceOnUse" color-interpolation-filters="sRGB">
<feFlood flood-opacity="0" result="BackgroundImageFix"/>
<feColorMatrix in="SourceAlpha" type="matrix" values="0 0 0 0 0 0 0 0 0 0 0 0 0 0 0 0 0 0 127 0" result="hardAlpha"/>
<feOffset dy="4"/>
<feGaussianBlur stdDeviation="2"/>
<feComposite in2="hardAlpha" operator="out"/>
<feColorMatrix type="matrix" values="0 0 0 0 0 0 0 0 0 0 0 0 0 0 0 0 0 0 0.25 0"/>
<feBlend mode="normal" in2="BackgroundImageFix" result="effect1_dropShadow_706_13"/>
<feBlend mode="normal" in="SourceGraphic" in2="effect1_dropShadow_706_13" result="shape"/>
</filter>
</defs>
</svg>
