<svg version="1.1" xmlns="http://www.w3.org/2000/svg" xmlns:xlink="http://www.w3.org/1999/xlink" width="51.84273" height="43.20226" viewBox="0,0,51.84273,43.20226"><g transform="translate(-214.07863,-158.39888)"><g data-paper-data="{&quot;isPaintingLayer&quot;:true}" fill-rule="nonzero" stroke-linecap="butt" stroke-linejoin="miter" stroke-miterlimit="10" stroke-dasharray="" stroke-dashoffset="0" style="mix-blend-mode: normal"><path d="M265.92136,180c0,11.92998 -11.60539,21.60114 -25.92136,21.60114c-14.31597,0 -25.92137,-9.67115 -25.92137,-21.60113c0,-11.92998 11.6054,-21.60113 25.92137,-21.60113c14.31597,0 25.92136,9.67115 25.92136,21.60114z" fill="#213552" stroke="#f9f100" stroke-width="0"/><path d="M263.56487,179.93491c0,10.84544 -10.55035,19.6374 -23.56487,19.6374c-13.01452,0 -23.56487,-8.79197 -23.56487,-19.6374c0,-10.84544 10.55035,-19.63739 23.56488,-19.63739c13.01452,0 23.56487,8.79196 23.56487,19.63739z" fill="#213552" stroke="#ffd700" stroke-width="2"/><path d="M228.43225,195.63267v-30.31132h6.46642v30.31132z" fill="#ffd700" stroke="none" stroke-width="0"/><path d="M245.21239,195.4545l-14.66954,-26.5251c0,0 3.5977,-3.09301 4.33675,-3.50174c0.1961,-0.10845 1.32193,0.37224 1.32193,0.37224l14.66953,26.5251z" fill="#ffd700" stroke="none" stroke-width="0"/><path d="M245.10192,194.76254l-0.40595,-30.3086l6.46583,-0.0866l0.40595,30.30861z" fill="#ffd700" stroke="none" stroke-width="0"/></g></g></svg>